<?xml version="1.0" encoding="UTF-8" standalone="no"?>
<!-- Created with Inkscape (http://www.inkscape.org/) -->
<svg
   xmlns:dc="http://purl.org/dc/elements/1.1/"
   xmlns:cc="http://creativecommons.org/ns#"
   xmlns:rdf="http://www.w3.org/1999/02/22-rdf-syntax-ns#"
   xmlns:svg="http://www.w3.org/2000/svg"
   xmlns="http://www.w3.org/2000/svg"
   xmlns:sodipodi="http://sodipodi.sourceforge.net/DTD/sodipodi-0.dtd"
   xmlns:inkscape="http://www.inkscape.org/namespaces/inkscape"
   width="16"
   height="16"
   id="svg6193"
   sodipodi:version="0.32"
   inkscape:version="0.46"
   version="1.0"
   sodipodi:docname="run.svg"
   inkscape:output_extension="org.inkscape.output.svg.inkscape"
   inkscape:export-filename="/home/daniel/Downloads/gloobus-preview/data/images/gloobus_button.png"
   inkscape:export-xdpi="90"
   inkscape:export-ydpi="90">
  <defs
     id="defs6195">
    <inkscape:perspective
       sodipodi:type="inkscape:persp3d"
       inkscape:vp_x="0 : 8 : 1"
       inkscape:vp_y="0 : 1000 : 0"
       inkscape:vp_z="16 : 8 : 1"
       inkscape:persp3d-origin="8 : 5.3333333 : 1"
       id="perspective9" />
  </defs>
  <sodipodi:namedview
     id="base"
     pagecolor="#ffffff"
     bordercolor="#666666"
     borderopacity="1.0"
     gridtolerance="10000"
     guidetolerance="10"
     objecttolerance="10"
     inkscape:pageopacity="0.0"
     inkscape:pageshadow="2"
     inkscape:zoom="35.3125"
     inkscape:cx="-1.5150442"
     inkscape:cy="9.1327434"
     inkscape:document-units="px"
     inkscape:current-layer="layer1"
     showgrid="false"
     inkscape:snap-bbox="true"
     inkscape:snap-nodes="false"
     inkscape:showpageshadow="false"
     inkscape:window-width="1280"
     inkscape:window-height="773"
     inkscape:window-x="158"
     inkscape:window-y="24"
     showborder="true">
    <inkscape:grid
       type="xygrid"
       id="grid6207"
       visible="true"
       enabled="true" />
  </sodipodi:namedview>
  <metadata
     id="metadata6198">
    <rdf:RDF>
      <cc:Work
         rdf:about="">
        <dc:format>image/svg+xml</dc:format>
        <dc:type
           rdf:resource="http://purl.org/dc/dcmitype/StillImage" />
      </cc:Work>
    </rdf:RDF>
  </metadata>
  <g
     inkscape:label="Layer 1"
     inkscape:groupmode="layer"
     id="layer1">
    <path
       id="path21644"
       d="M 6.9999999,2 L 6.9999999,4.125 C 6.6334999,4.21937 6.2866499,4.3753 5.9687499,4.5625 L 4.4062499,3 L 2.9999999,4.40625 L 4.5624999,5.96875 C 4.3753099,6.2865 4.2187599,6.63322 4.1249999,7 L 2,7 L 2,9 L 4.1249999,9 C 4.2209299,9.36546 4.3718399,9.71511 4.5624999,10.03125 L 2.9999999,11.59375 L 4.4062499,13 L 5.9999999,11.40625 C 6.3139999,11.58801 6.6391599,11.75063 6.9999999,11.84375 L 6.9999999,14 L 8.9999999,14 L 8.9999999,11.84375 C 9.3504799,11.7533 9.6931999,11.61217 9.9999999,11.4375 L 10.03125,11.4375 L 11.59375,13 L 13,11.59375 L 11.4375,10.03125 C 11.632,9.71099 11.77788,9.37172 11.875,9 L 14,9 L 14,7 L 11.84375,7 C 11.74676,6.63796 11.62263,6.28283 11.4375,5.96875 L 13,4.40625 L 11.59375,3 L 10.03125,4.5625 C 9.7106399,4.37184 9.3702199,4.22032 8.9999999,4.125 L 8.9999999,2 L 6.9999999,2 z M 7.9999999,6 C 9.1039799,6.00001 9.9999999,6.89603 9.9999999,8 C 10.00003,9.10397 9.1039899,10 7.9999999,10 C 6.8959999,10.00001 5.9999999,9.10397 5.9999999,8 C 6.0000099,6.89602 6.8960099,6 7.9999999,6 z"
       style="opacity:1;fill:#ffffff;fill-opacity:1;fill-rule:nonzero;stroke:none;stroke-width:1px;stroke-linecap:butt;stroke-linejoin:miter;marker:none;marker-start:none;marker-mid:none;marker-end:none;stroke-miterlimit:4;stroke-dasharray:none;stroke-dashoffset:0;stroke-opacity:1;visibility:visible;display:inline;overflow:visible;enable-background:accumulate" />
  </g>
</svg>
