<?xml version="1.0" encoding="UTF-8" standalone="no"?>
<!-- Created with Inkscape (http://www.inkscape.org/) -->
<svg
   xmlns:svg="http://www.w3.org/2000/svg"
   xmlns="http://www.w3.org/2000/svg"
   version="1.0"
   width="32"
   height="32"
   id="svg2747">
  <defs
     id="defs2749" />
  <path
     d="M 15.233386,5.7060004 L 15.233386,15 L 5.6277404,15 L 8.4625714,12.078427 L 3.9196783,7.5355343 L 7.4552124,4.0000004 L 11.998106,8.5428943 L 15.233386,5.7060004 z"
     id="path2390"
     style="fill:#000000;fill-opacity:1;fill-rule:nonzero;stroke:none;stroke-width:0.99829447;stroke-linecap:round;stroke-linejoin:round;marker:none;marker-start:none;marker-mid:none;marker-end:none;stroke-miterlimit:4;stroke-dasharray:none;stroke-dashoffset:0;stroke-opacity:1;visibility:visible;display:inline;overflow:visible" />
  <path
     d="M 15.233386,6.6537914 L 15.233386,15.947791 L 5.6277404,15.947791 L 8.4625714,13.026218 L 3.9196784,8.4833254 L 7.4552124,4.9477914 L 11.998106,9.4906854 L 15.233386,6.6537914 z"
     id="path2384"
     style="fill:#e4e4e4;fill-opacity:1;fill-rule:nonzero;stroke:none;stroke-width:0.99829447;stroke-linecap:round;stroke-linejoin:round;marker:none;marker-start:none;marker-mid:none;marker-end:none;stroke-miterlimit:4;stroke-dasharray:none;stroke-dashoffset:0;stroke-opacity:1;visibility:visible;display:inline;overflow:visible" />
  <path
     d="M 16.000001,25.346209 L 16.000001,16.05221 L 25.605648,16.05221 L 22.770816,18.973783 L 27.313709,23.516675 L 23.778176,27.052209 L 19.235282,22.509315 L 16.000001,25.346209 z"
     id="path2392"
     style="fill:#000000;fill-opacity:1;fill-rule:nonzero;stroke:none;stroke-width:0.99829447;stroke-linecap:round;stroke-linejoin:round;marker:none;marker-start:none;marker-mid:none;marker-end:none;stroke-miterlimit:4;stroke-dasharray:none;stroke-dashoffset:0;stroke-opacity:1;visibility:visible;display:inline;overflow:visible" />
  <path
     d="M 16,26.294 L 16,17.000001 L 25.605647,17.000001 L 22.770816,19.921574 L 27.313709,24.464466 L 23.778175,28 L 19.235281,23.457106 L 16,26.294 z"
     id="path2394"
     style="fill:#e4e4e4;fill-opacity:1;fill-rule:nonzero;stroke:none;stroke-width:0.99829447;stroke-linecap:round;stroke-linejoin:round;marker:none;marker-start:none;marker-mid:none;marker-end:none;stroke-miterlimit:4;stroke-dasharray:none;stroke-dashoffset:0;stroke-opacity:1;visibility:visible;display:inline;overflow:visible" />
</svg>
